<?xml version="1.0" encoding="UTF-8" standalone="no"?>
<!-- Created with Inkscape (http://www.inkscape.org/) -->

<svg
   width="48.0px"
   height="48.0px"
   viewBox="0 0 48.0 48.0"
   version="1.1"
   id="SVGRoot"
   sodipodi:docname="drawing.svg"
   inkscape:version="1.1.1 (3bf5ae0d25, 2021-09-20)"
   xmlns:inkscape="http://www.inkscape.org/namespaces/inkscape"
   xmlns:sodipodi="http://sodipodi.sourceforge.net/DTD/sodipodi-0.dtd"
   xmlns="http://www.w3.org/2000/svg"
   xmlns:svg="http://www.w3.org/2000/svg">
  <sodipodi:namedview
     id="namedview218"
     pagecolor="#505050"
     bordercolor="#eeeeee"
     borderopacity="1"
     inkscape:pageshadow="0"
     inkscape:pageopacity="0"
     inkscape:pagecheckerboard="0"
     inkscape:document-units="px"
     showgrid="true"
     inkscape:zoom="22.627417"
     inkscape:cx="23.727164"
     inkscape:cy="21.199278"
     inkscape:window-width="2560"
     inkscape:window-height="1387"
     inkscape:window-x="1912"
     inkscape:window-y="-8"
     inkscape:window-maximized="1"
     inkscape:current-layer="g41"
     inkscape:rotation="-149">
    <inkscape:grid
       type="xygrid"
       id="grid224" />
  </sodipodi:namedview>
  <defs
     id="defs213" />
  <g
     inkscape:label="Layer 1"
     inkscape:groupmode="layer"
     id="layer1">
    <g
       style="fill:none"
       id="g41"
       transform="translate(0.0416,0.26489)">
      <rect
         width="48"
         height="48"
         fill="#ffffff"
         fill-opacity="0.01"
         id="rect23"
         x="0"
         y="0"
         style="fill:#0b280b" />
      <path
         d="m 24,44.0002 c 11.0457,0 20,-8.9543 20,-20 C 44,12.9545 35.0457,4.00024 24,4.00024 c -11.0457,0 -20,8.95426 -20,19.99996 0,11.0457 8.9543,20 20,20 z"
         stroke="#000000"
         stroke-width="4"
         id="path25" />
      <path
         d="m 6,30.9856 c 2.63192,1.0554 4.5266,1.0554 5.6839,0 1.736,-1.5831 0.238,-6.3878 2.6693,-7.7129 2.4312,-1.3251 6.1354,4.5487 9.5976,2.616 3.4621,-1.9328 -0.3262,-7.0864 2.0764,-9.1757 2.4026,-2.0893 5.5268,0.267 6.0729,-3.2265 0.5461,-3.49346 -2.548,-1.9783 -3.1417,-5.27957 -0.3959,-2.20082 -0.3959,-3.35809 0,-3.47182"
         stroke="#000000"
         stroke-width="4"
         stroke-linecap="round"
         id="path27" />
      <path
         d="m 29.021,43.3505 c -1.8741,-1.918 -2.5488,-3.7008 -2.024,-5.3486 0.7872,-2.4716 2.0857,-2.3255 2.6519,-3.8537 0.5661,-1.5283 -1.0332,-3.7049 2.5155,-5.5656 2.3658,-1.2405 5.6187,0.1968 9.7585,4.3118"
         stroke="#000000"
         stroke-width="4"
         stroke-linecap="round"
         id="path29" />
      <path
         style="fill:#0b280b;stroke:#ffff00;stroke-width:0.0220971"
         d="m 15.447605,8.4555184 c 0.04913,-0.024455 0.230939,-0.1177656 0.404021,-0.207357 3.183183,-1.6476876 6.925334,-2.2914899 10.553002,-1.8155459 0.154392,0.020256 0.284332,0.037132 0.288756,0.037501 0.0044,3.697e-4 0.02413,0.1696534 0.04378,0.3761862 0.06692,0.7031792 0.233528,1.7899562 0.356061,2.3226274 0.160065,0.6958302 0.469626,1.3959239 0.839151,1.8977989 0.459073,0.623497 0.972473,1.064442 1.848203,1.587373 0.448981,0.268103 0.417302,0.233865 0.407876,0.440826 -0.0097,0.212324 -0.0718,0.598859 -0.108649,0.675956 -0.03559,0.07447 -0.05659,0.07768 -1.069192,0.163422 -1.144968,0.09695 -1.702643,0.198296 -2.359864,0.428847 -0.452674,0.158796 -0.644889,0.250478 -1.092417,0.521053 -0.555544,0.335882 -0.900025,0.619386 -1.258493,1.035729 -0.676519,0.785742 -1.043871,1.814812 -1.090174,3.053932 -0.02415,0.646173 0.01518,1.23157 0.160576,2.390062 0.169728,1.352393 0.192733,2.046489 0.08166,2.463981 -0.06856,0.257697 -0.139569,0.363831 -0.333599,0.498591 -0.314238,0.218248 -0.594379,0.256101 -1.052813,0.142255 -0.61128,-0.151802 -1.225651,-0.475226 -2.636421,-1.387891 -1.636615,-1.058771 -2.366298,-1.420822 -3.295228,-1.635013 -0.843627,-0.194522 -1.640116,-0.13613 -2.377032,0.174266 -0.342127,0.144107 -0.901549,0.507463 -1.172942,0.761849 -0.659516,0.618189 -1.127233,1.422281 -1.398503,2.404287 -0.201534,0.729557 -0.292805,1.308537 -0.417589,2.649034 -0.04507,0.484151 -0.100035,1.024956 -0.122147,1.20179 -0.04823,0.385659 -0.19409,0.994397 -0.262926,1.097269 -0.131835,0.197029 -0.5649387,0.315007 -1.07225,0.292083 C 8.6914178,29.998459 7.7099513,29.752963 6.8797468,29.418436 L 6.7876525,29.381327 6.6663492,28.927639 C 6.3029221,27.568388 6.1051374,26.209624 6.0640578,24.78993 5.917055,19.709642 7.8964334,14.853663 11.554826,11.319512 c 0.616104,-0.59518 1.223549,-1.104216 1.972713,-1.6531222 0.286925,-0.2102274 1.699694,-1.101177 1.920066,-1.2108714 z"
         id="path3858"
         transform="translate(-0.0416,-0.26489)" />
      <path
         style="fill:#0b280b;stroke:#ffff00;stroke-width:0.0220971"
         d="m 33.207261,30.594852 c 0.605427,-0.27672 1.357801,-0.203819 2.3669,0.22934 0.846273,0.363266 1.915885,1.061935 2.998008,1.958294 0.308059,0.255175 0.843064,0.722201 0.860749,0.751378 0.02687,0.04433 -0.620587,1.025555 -1.043766,1.581846 -0.838898,1.102777 -1.848124,2.155863 -2.888693,3.014231 -0.66864,0.551563 -1.118453,0.874725 -1.908075,1.370831 -1.149699,0.722336 -2.139756,1.210006 -3.378787,1.664282 -0.383219,0.140503 -0.457137,0.161192 -0.495955,0.138812 -0.03066,-0.01768 -0.13591,-0.174831 -0.321101,-0.479464 -0.219552,-0.361158 -0.289554,-0.491853 -0.344778,-0.643718 -0.202063,-0.555671 -0.221668,-0.935448 -0.07092,-1.373741 0.234042,-0.680452 0.41436,-0.954166 0.964864,-1.46462 0.71439,-0.66242 1.011405,-1.010242 1.299672,-1.521996 0.450878,-0.800434 0.62118,-1.561938 0.589622,-2.636494 -0.0047,-0.160574 -0.01281,-0.439468 -0.01798,-0.619766 -0.0106,-0.36933 0.0171,-0.700818 0.07031,-0.841277 0.05732,-0.151319 0.197463,-0.343574 0.362995,-0.497965 0.177958,-0.16598 0.71433,-0.519087 0.956935,-0.629973 z"
         id="path3936"
         transform="translate(-0.0416,-0.26489)" />
      <path
         style="fill:#004455;stroke:#ffff00;stroke-width:0.0220971"
         d="m 31.277562,7.7936639 c 4.533573,2.0004441 8.0293,5.7516471 9.706777,10.4161701 0.948539,2.637579 1.260296,5.570116 0.892624,8.396426 -0.106634,0.819698 -0.306168,1.796276 -0.517873,2.534627 -0.07614,0.265551 -0.147385,0.503132 -0.15832,0.527958 -0.01839,0.04176 -0.03792,0.03053 -0.261164,-0.150184 -1.386699,-1.122551 -2.733686,-1.963538 -3.942037,-2.461198 -0.850797,-0.350402 -1.717056,-0.568788 -2.501426,-0.630618 -0.850717,-0.06706 -1.712008,0.04235 -2.478855,0.3149 -0.506006,0.17984 -1.207772,0.552032 -1.71735,0.910823 -1.317801,0.927855 -2.072621,1.984141 -2.370849,3.31774 -0.139006,0.621599 -0.161283,1.057228 -0.116975,2.287535 0.02028,0.563037 0.02534,0.553869 -0.655132,1.186252 -0.806917,0.749893 -1.238233,1.333984 -1.661163,2.249556 -0.805642,1.744079 -0.84512,3.357798 -0.124807,5.101454 0.06038,0.146149 0.126435,0.293418 0.146798,0.327263 0.02028,0.03389 0.03255,0.06425 0.02708,0.06756 -0.01641,0.0099 -0.800683,0.05165 -1.088255,0.05786 -2.437071,0.05265 -4.859958,-0.383786 -7.089243,-1.276991 -3.364093,-1.347888 -6.201331,-3.642269 -8.27025,-6.687879 l -0.1656435,-0.243839 0.2610912,0.0089 c 1.5487963,0.05299 2.9159153,-0.411577 3.8967983,-1.3242 0.731951,-0.681015 1.197874,-1.610854 1.431493,-2.856822 0.100064,-0.533674 0.133679,-0.802911 0.246064,-1.970793 0.10117,-1.051344 0.144865,-1.396345 0.224049,-1.768991 0.05076,-0.238877 0.163677,-0.561521 0.239268,-0.683672 l 0.05066,-0.08186 0.210185,0.08588 c 0.353112,0.144278 0.627423,0.302319 1.634362,0.941616 1.111872,0.705918 1.518882,0.951503 1.997497,1.205264 1.424689,0.755373 2.613997,1.04637 3.828615,0.936776 1.76397,-0.159162 3.368347,-1.258304 4.080615,-2.795586 0.531484,-1.147098 0.635598,-2.362602 0.380716,-4.444777 -0.199766,-1.631929 -0.227653,-2.111279 -0.146222,-2.51337 0.04894,-0.241671 0.07514,-0.273218 0.376549,-0.453423 0.231491,-0.138403 0.29105,-0.165266 0.464647,-0.209569 0.336158,-0.08579 0.550149,-0.114239 1.317607,-0.17517 0.40677,-0.03229 0.886216,-0.08152 1.065434,-0.109385 0.839105,-0.130474 1.498972,-0.389868 2.02831,-0.797329 0.732323,-0.563711 1.202358,-1.304188 1.465519,-2.308728 0.314788,-1.201609 0.308447,-2.307313 -0.0186,-3.243078 -0.08265,-0.236498 -0.119603,-0.310856 -0.31634,-0.636623 C 33.40867,10.444838 33.27558,10.277576 32.990959,10.016119 32.720339,9.7675234 32.515806,9.6204785 31.918419,9.2450401 31.228234,8.8112814 31.176382,8.7637836 31.075323,8.4727461 31.024723,8.3270224 30.908512,7.7756233 30.90371,7.6584701 c -7.43e-4,-0.018115 0.150017,0.036389 0.373849,0.1351558 z"
         id="path3975"
         transform="translate(-0.0416,-0.26489)" />
      <path
         style="fill:#00aa00;stroke:#ffff00;stroke-width:0.0441942"
         d="m 15.551446,8.4350027 c 0.08764,-0.042981 0.383035,-0.1886927 0.656432,-0.323802 2.827402,-1.3972689 6.330196,-2.021407 9.576381,-1.7063482 0.397995,0.038627 0.760629,0.078433 0.805853,0.088458 0.06945,0.015394 0.08888,0.085145 0.125042,0.4489504 0.0647,0.6509236 0.208509,1.5847751 0.324515,2.1073385 0.274788,1.2378216 0.814402,2.1737566 1.671943,2.8999096 0.173822,0.147188 0.566176,0.424918 0.871898,0.617177 0.636712,0.400407 0.619465,0.369078 0.51819,0.941253 l -0.05053,0.285474 -1.093049,0.111739 c -1.812585,0.185294 -2.392905,0.352814 -3.442553,0.993756 -0.566452,0.345891 -0.725782,0.461679 -0.961723,0.698907 -0.637555,0.641036 -1.017979,1.341954 -1.226704,2.260162 -0.198238,0.872076 -0.203873,1.685917 -0.0224,3.235587 0.177881,1.519021 0.209589,2.237962 0.117283,2.659194 -0.06809,0.310729 -0.153439,0.437567 -0.39154,0.58188 -0.395183,0.239521 -0.943367,0.17803 -1.734595,-0.194576 -0.195046,-0.09185 -1.009229,-0.572548 -1.809297,-1.068218 -0.800067,-0.495669 -1.643291,-0.996188 -1.873831,-1.112264 -1.817437,-0.915077 -3.364022,-0.873099 -4.700632,0.127586 -0.447381,0.334943 -0.812209,0.732139 -1.11488,1.213794 -0.264877,0.421512 -0.371943,0.653734 -0.567643,1.231199 -0.216924,0.640093 -0.328031,1.2921 -0.507848,2.980202 -0.08535,0.801277 -0.201586,1.630336 -0.258297,1.842352 -0.09026,0.33743 -0.121256,0.396329 -0.248655,0.472472 C 10.01417,29.947099 9.6037116,30.002926 9.1640488,29.970101 8.7173412,29.936749 7.7879146,29.714947 7.2270701,29.507852 L 6.8167431,29.356337 6.7537811,29.122898 C 5.5009152,24.477758 6.0617663,19.698181 8.3453623,15.559428 9.5217255,13.427407 11.237272,11.449807 13.198885,9.9645212 13.691342,9.5916444 15.221451,8.5968435 15.551446,8.4350027 Z"
         id="path4532"
         transform="translate(-0.0416,-0.26489)" />
      <path
         style="fill:#44aa00;stroke:#ffff00;stroke-width:0.0441942"
         d="m 33.530692,30.523612 c 1.157833,-0.265969 2.957006,0.570623 5.114376,2.378119 0.380061,0.318424 0.703634,0.599764 0.71905,0.6252 0.06393,0.105481 -0.953839,1.546477 -1.719063,2.433908 -1.806031,2.094456 -4.027156,3.733829 -6.487259,4.788128 -0.629323,0.269703 -1.348145,0.534564 -1.409317,0.519285 -0.02139,-0.0053 -0.178942,-0.242518 -0.350121,-0.527057 -0.55592,-0.924069 -0.607122,-1.50832 -0.207184,-2.364219 0.170013,-0.36384 0.361079,-0.600456 0.934772,-1.157619 0.604131,-0.586724 0.811675,-0.833483 1.090928,-1.297055 0.509923,-0.846497 0.674958,-1.614073 0.648179,-3.014674 -0.02461,-1.287003 0.04709,-1.443897 0.918512,-2.009987 0.404442,-0.262732 0.524694,-0.322933 0.747127,-0.374029 z"
         id="path4571"
         transform="translate(-0.0416,-0.26489)" />
      <path
         style="fill:#44aa00;stroke:#ffff00;stroke-width:0.0441942"
         d="m 15.574913,8.4737208 c 0.06665,-0.030715 0.344876,-0.1663876 0.618274,-0.3014943 1.83283,-0.9057369 3.984066,-1.5013039 6.173233,-1.7090516 1.23042,-0.1167643 2.180395,-0.1161126 3.482188,0.00239 0.619684,0.056409 0.735092,0.080783 0.761226,0.1607658 0.01694,0.051852 0.08726,0.5135354 0.156254,1.0259635 0.222044,1.6490705 0.414269,2.3059726 0.918359,3.1383638 0.466432,0.770206 0.782197,1.07989 1.779512,1.74524 0.304539,0.203171 0.573888,0.402697 0.598553,0.443392 0.04885,0.08059 0.031,0.419219 -0.03354,0.636524 l -0.04054,0.136505 -0.860613,0.08969 c -1.083928,0.112961 -1.817619,0.234213 -2.292034,0.378791 -0.304102,0.09267 -0.519451,0.198579 -1.197538,0.588928 -0.763458,0.439494 -0.848663,0.498029 -1.112823,0.764489 -0.648374,0.654023 -1.014112,1.333956 -1.229003,2.28481 -0.213743,0.945772 -0.217314,1.507379 -0.02145,3.37295 0.167878,1.599005 0.183024,2.04657 0.08483,2.506817 -0.06339,0.297122 -0.151331,0.436543 -0.350701,0.555994 -0.440006,0.263625 -1.158077,0.114876 -2.127362,-0.440683 -0.241022,-0.138145 -0.983662,-0.583353 -1.65031,-0.98935 -1.650001,-1.004871 -2.025729,-1.195681 -2.793954,-1.418881 -1.536343,-0.446369 -3.025077,-0.04155 -4.131771,1.123508 -0.316973,0.33369 -0.788345,1.076707 -0.962506,1.517184 -0.327914,0.829341 -0.414855,1.296149 -0.738959,3.967677 -0.13604,1.121345 -0.256898,1.642163 -0.401397,1.729744 -0.149493,0.09061 -0.5772096,0.156297 -0.919766,0.141258 C 8.8554879,29.906469 7.9833419,29.714107 7.3660706,29.502423 L 6.8526868,29.326366 6.7905268,29.096534 C 4.8918313,22.07627 7.2987398,14.705908 12.958192,10.210099 13.304404,9.9350713 15.1881,8.6576995 15.393747,8.5585001 c 0.03299,-0.015913 0.114514,-0.054064 0.181166,-0.084779 z"
         id="path4980"
         transform="translate(-0.0416,-0.26489)" />
      <path
         style="fill:#00aad4;stroke:#ffff00;stroke-width:0.0441942"
         d="m 31.389946,7.8858506 c 0.211597,0.092029 0.640783,0.3028142 0.953748,0.4684126 2.369661,1.2538546 4.235967,2.8197588 5.971901,5.0106578 0.450216,0.568212 1.780487,2.789491 2.077663,3.46927 1.4907,3.409922 1.936085,6.870942 1.341341,10.423366 -0.111409,0.66545 -0.504299,2.324729 -0.558192,2.357394 -0.01612,0.0098 -0.150256,-0.07753 -0.29809,-0.193993 -1.347287,-1.061402 -2.63668,-1.867278 -3.746441,-2.341543 -1.677649,-0.716956 -3.271074,-0.882955 -4.720366,-0.491756 -0.565105,0.152535 -0.993319,0.349235 -1.711933,0.786374 -1.28576,0.782139 -2.100474,1.675552 -2.560033,2.807323 -0.311608,0.767407 -0.401422,1.47744 -0.373219,2.950508 0.0063,0.331518 -0.01597,0.602712 -0.05561,0.675616 -0.03642,0.06699 -0.242954,0.290611 -0.458969,0.496946 -1.03274,0.986462 -1.473245,1.598947 -1.903969,2.647308 -0.541215,1.317292 -0.654294,2.481586 -0.363573,3.743459 0.0921,0.399773 0.345494,1.138578 0.449168,1.309628 0.03641,0.06007 0.04647,0.121181 0.02236,0.135797 -0.02411,0.01462 -0.260126,0.03768 -0.524468,0.05126 -2.995172,0.153864 -6.151853,-0.503971 -8.854553,-1.845238 -2.73988,-1.359719 -4.977368,-3.297924 -6.8476085,-5.931682 l -0.2388083,-0.336301 0.2810674,0.0067 c 0.7303644,0.01729 1.6001284,-0.122752 2.2405044,-0.360738 0.437125,-0.162451 1.181423,-0.600674 1.495847,-0.880715 0.810035,-0.721457 1.300194,-1.669229 1.550506,-2.998057 0.04701,-0.249563 0.1559,-1.111801 0.241977,-1.916086 0.153907,-1.438063 0.284564,-2.164447 0.433011,-2.407305 l 0.07517,-0.122985 0.362897,0.179617 c 0.199593,0.09879 0.950251,0.54453 1.668127,0.990535 1.47228,0.914703 2.02814,1.220867 2.735426,1.506654 1.012338,0.409047 1.933316,0.562867 2.862215,0.478042 2.220209,-0.202745 3.994932,-1.730336 4.484573,-3.860092 0.200766,-0.873257 0.204669,-1.811364 0.01454,-3.494937 -0.165128,-1.462203 -0.196635,-2.020804 -0.132942,-2.356986 l 0.05344,-0.282091 0.315495,-0.191222 c 0.392313,-0.237781 0.653343,-0.295093 1.806519,-0.396634 1.332339,-0.117317 1.871909,-0.244363 2.534762,-0.596832 1.210156,-0.643495 1.903113,-1.723769 2.152763,-3.356012 0.199411,-1.303776 0.04167,-2.299596 -0.507874,-3.206287 C 33.248092,10.136345 32.954122,9.8662534 31.862152,9.1629077 31.439631,8.8907594 31.280279,8.764155 31.205939,8.6415498 31.100545,8.4677308 30.921013,7.7695665 30.973526,7.7377387 c 0.01743,-0.010567 0.204823,0.056083 0.41642,0.1481119 z"
         id="path5019"
         transform="translate(-0.0416,-0.26489)" />
      <path
         style="fill:#00aa00;stroke:#ffff00;stroke-width:0.0441942"
         d="m 15.832738,8.3875242 c 0.971213,-0.4541923 1.218735,-0.5627029 1.73525,-0.7607114 2.450254,-0.9393173 5.208672,-1.3376016 7.904816,-1.1413654 0.36645,0.026672 0.763094,0.065327 0.881432,0.0859 l 0.215158,0.037406 0.144212,0.9993675 c 0.250936,1.738965 0.430787,2.3475769 0.943278,3.1920331 0.48536,0.799752 0.751944,1.064608 1.809851,1.798125 0.482093,0.334266 0.554458,0.39848 0.570947,0.506637 0.02018,0.132368 -0.05721,0.55756 -0.106976,0.587722 -0.01644,0.01 -0.387095,0.05787 -0.823672,0.106452 -0.984862,0.109596 -1.833289,0.247918 -2.203774,0.359289 -0.338741,0.101827 -1.026101,0.443679 -1.654238,0.822719 -0.700216,0.422531 -1.223253,0.9867 -1.602513,1.728527 -0.232135,0.454052 -0.532514,1.666932 -0.554517,2.23905 -0.009,0.232811 0.05135,1.206524 0.134012,2.163808 0.08266,0.957283 0.147902,1.871201 0.14498,2.030929 -0.0063,0.342606 -0.09241,0.761095 -0.190047,0.923307 -0.170531,0.283304 -0.612431,0.368247 -1.150888,0.221226 -0.601799,-0.164315 -0.749014,-0.24079 -2.552181,-1.32581 -2.060138,-1.239646 -2.278575,-1.349654 -3.126253,-1.574415 -1.153053,-0.30573 -2.173451,-0.168621 -3.149984,0.423258 -0.695605,0.421608 -1.141195,0.884387 -1.590502,1.651855 -0.477669,0.815915 -0.657573,1.540825 -0.970678,3.911275 -0.12243,0.926894 -0.264093,1.834877 -0.314806,2.017741 -0.08612,0.310551 -0.102311,0.336277 -0.245418,0.390053 -0.2236817,0.08405 -0.7022805,0.111178 -1.0873463,0.06162 C 8.6270635,29.796449 7.5855574,29.535771 7.1546214,29.383428 L 6.8852626,29.288205 6.7522825,28.748759 C 5.7113872,24.526271 6.162639,20.206132 8.0438637,16.383566 9.3663145,13.696404 11.352231,11.362676 13.70286,9.7334582 14.635315,9.0871757 15.485538,8.5498934 15.832738,8.3875242 Z"
         id="path5354"
         transform="translate(-0.0416,-0.26489)" />
      <path
         style="fill:#00aa00;stroke:#ffff00;stroke-width:0.0441942"
         d="m 33.421823,30.596527 c 0.756889,-0.232439 1.948794,0.113726 3.312459,0.962037 0.974271,0.606076 2.622085,1.921233 2.564364,2.046677 -0.132678,0.288352 -0.745611,1.156124 -1.324696,1.875466 -1.512918,1.879353 -3.428273,3.481558 -5.430948,4.543016 -0.920914,0.488104 -2.191223,1.043683 -2.702732,1.182061 -0.0766,0.02072 -0.105782,-0.01902 -0.424918,-0.578822 -0.380562,-0.667544 -0.457442,-0.912521 -0.430831,-1.372834 0.03498,-0.605159 0.376306,-1.198277 1.123671,-1.952612 0.623743,-0.62956 0.856456,-0.897406 1.061724,-1.222016 0.589456,-0.932162 0.748926,-1.657146 0.744096,-3.382818 -0.002,-0.731465 0.06533,-1.03879 0.279451,-1.274597 0.195461,-0.21526 0.998502,-0.754969 1.22836,-0.825558 z"
         id="path5911"
         transform="translate(-0.0416,-0.26489)" />
    </g>
  </g>
</svg>
